<?xml version="1.0" encoding="utf-8"?>
<!-- Generator: Adobe Illustrator 17.0.0, SVG Export Plug-In . SVG Version: 6.00 Build 0)  -->
<!DOCTYPE svg PUBLIC "-//W3C//DTD SVG 1.1//EN" "http://www.w3.org/Graphics/SVG/1.1/DTD/svg11.dtd">
<svg version="1.1" id="Layer_1" xmlns="http://www.w3.org/2000/svg" xmlns:xlink="http://www.w3.org/1999/xlink" x="0px" y="0px"
	 width="642.458px" height="404.333px" viewBox="0 0 642.458 404.333" enable-background="new 0 0 642.458 404.333"
	 xml:space="preserve">
<g>
	<g>
		<g>
			<g>
				<g>
					
						<line fill="none" stroke="#DED8D5" stroke-width="1.9678" stroke-miterlimit="10" x1="71.2" y1="126.591" x2="570.569" y2="126.591"/>
					<path fill="none" stroke="#DED8D5" stroke-width="1.9678" stroke-miterlimit="10" d="M564.048,402.821H77.721
						c-3.602,0-6.521-2.92-6.521-6.521V100.377c0-3.602,2.92-6.521,6.521-6.521h486.327c3.602,0,6.521,2.92,6.521,6.521V396.3
						C570.569,399.901,567.649,402.821,564.048,402.821z"/>
					<g>
						<circle fill="#F8AFA5" cx="99.542" cy="110.557" r="4.568"/>
						<circle fill="#EBD255" cx="117.295" cy="110.557" r="4.568"/>
						<circle fill="#05867C" cx="135.047" cy="110.557" r="4.568"/>
					</g>
				</g>
			</g>
			<g>
				<g>
					<g>
						<g>
							<path fill="#EDEDED" d="M635.441,236.849H518.079c-3.309,0-5.991-2.682-5.991-5.991V122.317c0-3.309,2.682-5.991,5.991-5.991
								h117.362c3.309,0,5.991,2.682,5.991,5.991v108.541C641.432,234.167,638.75,236.849,635.441,236.849z"/>
							<path fill="none" stroke="#DED8D5" stroke-width="1.9678" stroke-miterlimit="10" d="M635.441,236.849H518.079
								c-3.309,0-5.991-2.682-5.991-5.991V122.317c0-3.309,2.682-5.991,5.991-5.991h117.362c3.309,0,5.991,2.682,5.991,5.991
								v108.541C641.432,234.167,638.75,236.849,635.441,236.849z"/>
						</g>
					</g>
				</g>
				<g>
					<g>
						<g>
							<g>
								<path fill="#C18CBE" d="M546.453,205.497h60.998c3.326,0,6.022-2.696,6.022-6.022v-49.991c0-3.326-2.696-6.022-6.022-6.022
									h-60.998c-3.326,0-6.022,2.696-6.022,6.022v49.991C540.431,202.801,543.127,205.497,546.453,205.497z"/>
							</g>
						</g>
					</g>
					<g>
						
							<polygon fill="none" stroke="#FFFFFF" stroke-width="1.6466" stroke-linecap="round" stroke-linejoin="round" stroke-miterlimit="10" points="
							593.614,184.794 565.063,184.794 559.906,184.794 559.906,162.189 593.614,162.189 593.614,167.84 						"/>
						
							<polyline fill="none" stroke="#FFFFFF" stroke-width="1.6466" stroke-linecap="round" stroke-linejoin="round" stroke-miterlimit="10" points="
							559.906,162.189 576.76,175.471 593.614,162.189 						"/>
					</g>
				</g>
			</g>
			<g>
				<g>
					<g>
						<g>
							<path fill="#EDEDED" d="M118.973,327.738H7.047c-3.155,0-5.713-2.558-5.713-5.713V224.44c0-3.155,2.558-5.713,5.713-5.713
								h111.926c3.155,0,5.713,2.558,5.713,5.713v97.584C124.686,325.18,122.128,327.738,118.973,327.738z"/>
							<path fill="none" stroke="#DED8D5" stroke-width="1.9678" stroke-miterlimit="10" d="M118.973,327.738H7.047
								c-3.155,0-5.713-2.558-5.713-5.713V224.44c0-3.155,2.558-5.713,5.713-5.713h111.926c3.155,0,5.713,2.558,5.713,5.713v97.584
								C124.686,325.18,122.128,327.738,118.973,327.738z"/>
						</g>
					</g>
				</g>
				<g>
					<path fill="#F8AFA5" d="M91.744,306.736H33.695c-3.667,0-6.639-2.973-6.639-6.639v-56.06c0-3.667,2.972-6.639,6.639-6.639
						h58.049c3.667,0,6.639,2.973,6.639,6.639v56.06C98.383,303.763,95.411,306.736,91.744,306.736z"/>
					<g>
						<path fill="#FFFFFF" d="M48.894,258.454c-7.832,7.832-7.832,20.688,0,28.52c7.832,7.832,20.688,7.832,28.52,0
							c7.832-7.832,7.832-20.688,0-28.52C69.583,250.622,56.726,250.622,48.894,258.454z M77.368,261.358h-6.427
							c-0.645-2.019-1.475-4.038-2.499-6.057C72.002,256.382,75.101,258.523,77.368,261.358z M55.749,271.535
							c0.003-2.606,0.311-5.212,0.955-7.819h12.9c0.645,2.606,0.952,5.212,0.955,7.819H55.749z M70.481,273.893
							c-0.178,2.606-0.65,5.212-1.386,7.818H57.214c-0.736-2.606-1.208-5.212-1.386-7.818H70.481z M63.155,254.52
							c0.97,0,1.921,0.076,2.849,0.222c1.236,2.206,2.204,4.41,2.924,6.616H57.381c0.72-2.205,1.688-4.41,2.924-6.616
							C61.234,254.596,62.185,254.52,63.155,254.52z M57.867,255.302c-1.024,2.019-1.854,4.038-2.499,6.057h-6.427
							C51.208,258.523,54.307,256.381,57.867,255.302z M47.338,263.716H54.7c-0.645,2.606-0.984,5.212-1.031,7.819H45
							C45.181,268.704,46.009,266.049,47.338,263.716z M47.338,281.712c-1.33-2.332-2.158-4.987-2.339-7.818h8.705
							c0.127,2.606,0.541,5.212,1.228,7.818H47.338z M48.941,284.07h6.688c0.667,2.043,1.496,4.086,2.485,6.13
							C54.45,289.145,51.261,286.971,48.941,284.07z M63.155,290.908c-0.808,0-1.604-0.053-2.384-0.155
							c-1.112-2.228-2.058-4.455-2.82-6.683h10.407c-0.762,2.228-1.709,4.455-2.82,6.683
							C64.758,290.855,63.963,290.908,63.155,290.908z M68.195,290.2c0.989-2.043,1.819-4.086,2.485-6.13h6.688
							C75.048,286.971,71.859,289.145,68.195,290.2z M78.97,281.712h-7.594c0.687-2.606,1.101-5.212,1.228-7.818h8.704
							C81.128,276.724,80.3,279.379,78.97,281.712z M81.309,271.535H72.64c-0.047-2.606-0.386-5.212-1.031-7.819h7.361
							C80.3,266.049,81.128,268.704,81.309,271.535z"/>
					</g>
				</g>
			</g>
		</g>
		<g>
			<path fill="#C18CBE" d="M112.302,65.345H10.904c-2.095,0-3.793-1.698-3.793-3.793l0,0c0-2.095,1.698-3.793,3.793-3.793h101.398
				c2.095,0,3.793,1.698,3.793,3.793l0,0C116.095,63.647,114.397,65.345,112.302,65.345z"/>
			<path fill="#6ECCDE" d="M639.573,313.029h-49.215c-2.095,0-3.793-1.698-3.793-3.793l0,0c0-2.095,1.698-3.793,3.793-3.793h49.215
				c2.095,0,3.793,1.698,3.793,3.793l0,0C643.366,311.331,641.668,313.029,639.573,313.029z"/>
			<path fill="#C18CBE" d="M605.104,356.906h-6.014c-1.58,0-2.861-1.281-2.861-2.861V348.4c0-1.58,1.281-2.861,2.861-2.861h6.014
				c1.58,0,2.861,1.281,2.861,2.861v5.645C607.965,355.625,606.684,356.906,605.104,356.906z"/>
			<path fill="#F8AFA5" d="M35.057,383.184h-6.014c-1.58,0-2.861-1.281-2.861-2.861v-5.645c0-1.58,1.281-2.861,2.861-2.861h6.014
				c1.58,0,2.861,1.281,2.861,2.861v5.645C37.918,381.903,36.637,383.184,35.057,383.184z"/>
			<g>
				<g>
					<path fill="#F8AFA5" d="M495.332,61.427H395.248c-1.663,0-3.012-1.348-3.012-3.012V33.979c0-1.663,1.348-3.012,3.012-3.012
						h100.084c1.663,0,3.012,1.349,3.012,3.012v24.436C498.344,60.079,496.995,61.427,495.332,61.427z"/>
					<g>
						
							<line fill="none" stroke="#FFFFFF" stroke-width="1.1803" stroke-miterlimit="10" x1="406.689" y1="41.821" x2="477.867" y2="41.821"/>
						
							<line fill="none" stroke="#FFFFFF" stroke-width="1.1803" stroke-miterlimit="10" x1="406.689" y1="49.126" x2="435.681" y2="49.126"/>
					</g>
				</g>
				<polygon fill="#F8AFA5" points="403.794,57.981 403.794,69.852 418.723,57.981 				"/>
			</g>
			<g>
				<g>
					<g>
						<g>
							<g>
								<g>
									<path fill="#6ECCDE" d="M249.439,63.239h-48.448c-4.706,0-8.52-3.815-8.52-8.521V9.677c0-3.568,2.892-6.46,6.46-6.46
										h50.509c3.568,0,6.46,2.892,6.46,6.46v47.103C255.898,60.347,253.006,63.239,249.439,63.239z"/>
								</g>
							</g>
						</g>
					</g>
				</g>
				<g>
					<path fill="#FFFFFF" d="M238.986,37.667l-3.612-3.612c-0.645-0.709-1.483-1.096-2.322-1.096c-0.839,0-1.677,0.387-2.322,1.032
						l-2.064,2.064c-0.129-0.064-0.258-0.129-0.387-0.193c-0.258-0.129-0.451-0.194-0.645-0.322
						c-1.935-1.225-3.676-2.838-5.353-4.902c-0.774-0.967-1.354-1.87-1.677-2.644c0.516-0.451,0.967-0.968,1.419-1.419
						c0.193-0.194,0.387-0.387,0.58-0.581c0.709-0.709,1.096-1.548,1.096-2.386c0-0.838-0.387-1.677-1.096-2.386l-1.806-1.806
						c-0.193-0.193-0.387-0.387-0.581-0.645c-0.387-0.387-0.838-0.838-1.225-1.225c-0.645-0.645-1.483-1.032-2.322-1.032
						c-0.838,0-1.612,0.323-2.322,1.032l-2.257,2.257c-0.838,0.838-1.354,1.935-1.483,3.16c-0.129,1.935,0.387,3.741,0.838,4.902
						c1.032,2.967,2.644,5.611,5.031,8.449c2.902,3.418,6.32,6.127,10.319,8.062c1.483,0.709,3.547,1.548,5.805,1.741
						c0.129,0,0.258,0,0.451,0c1.548,0,2.838-0.581,3.87-1.677c0,0,0,0,0.064-0.065c0.323-0.387,0.71-0.774,1.161-1.161
						c0.258-0.258,0.58-0.58,0.838-0.838C240.34,40.956,240.34,39.021,238.986,37.667z M237.503,41.02
						c-0.258,0.258-0.516,0.516-0.774,0.774c-0.451,0.387-0.838,0.839-1.29,1.29c-0.645,0.645-1.354,0.967-2.322,0.967
						c-0.129,0-0.193,0-0.322,0c-1.935-0.129-3.741-0.903-5.031-1.548c-3.676-1.806-6.901-4.321-9.61-7.546
						c-2.193-2.644-3.676-5.16-4.708-7.804c-0.645-1.548-0.903-2.773-0.774-3.999c0.064-0.709,0.322-1.354,0.903-1.87l2.193-2.193
						c0.194-0.194,0.516-0.451,0.903-0.451c0.387,0,0.645,0.194,0.903,0.451c0.387,0.387,0.774,0.774,1.161,1.161
						c0.193,0.194,0.387,0.451,0.645,0.645l1.806,1.806c0.193,0.193,0.451,0.58,0.451,0.903c0,0.387-0.258,0.709-0.451,0.903
						c-0.194,0.194-0.387,0.387-0.58,0.58c-0.581,0.58-1.096,1.096-1.612,1.612c0,0,0,0-0.064,0.064
						c-0.645,0.645-0.516,1.225-0.387,1.612v0.064c0.451,1.161,1.161,2.193,2.128,3.483c1.806,2.257,3.741,3.999,5.869,5.353
						c0.258,0.194,0.58,0.322,0.838,0.451c0.258,0.129,0.451,0.194,0.645,0.322l0.064,0.065c0.645,0.322,1.29,0.193,1.806-0.323
						l2.257-2.257c0.194-0.194,0.516-0.451,0.903-0.451c0.322,0,0.645,0.258,0.838,0.451l3.612,3.612
						C238.083,39.73,238.083,40.375,237.503,41.02z"/>
				</g>
			</g>
		</g>
	</g>
	<g>
		<defs>
			<rect id="SVGID_1_" x="117.199" y="69.329" width="459.273" height="332.684"/>
		</defs>
		<clipPath id="SVGID_2_">
			<use xlink:href="#SVGID_1_"  overflow="visible"/>
		</clipPath>
		<g clip-path="url(#SVGID_2_)">
			<g>
				<g>
					<path fill="#8F726D" d="M460.186,290.495l-36.502-4.861l0.285,3.625l-31.208,4.156c0,0-20.117,50.469-2.387,161.465h25.387
						l9.137-112.549h3.245l8.85,112.549h25.387C480.108,343.884,460.186,290.495,460.186,290.495z"/>
					
						<line fill="none" stroke="#282828" stroke-width="1.2333" stroke-linecap="round" stroke-linejoin="round" stroke-miterlimit="10" x1="413.29" y1="342.331" x2="439.777" y2="342.331"/>
				</g>
				<g>
					<g>
						<g>
							<g>
								<path fill="#F8AFA5" d="M481.502,237.254c-3.123-4.985-20.665-4.808-21.591-4.917c-4.742-0.556,3.041,37.18,12.906,70.166
									c1.891,6.324,8.85,9.618,14.927,7.042c0.066-0.028,0.132-0.056,0.197-0.084c4.807-2.036,7.543-7.14,6.576-12.271
									C489.825,272.3,485.114,243.017,481.502,237.254z"/>
							</g>
							<polygon fill="#F3988F" points="485.684,250.899 463.287,259.59 461.187,248.964 484.379,243.178 							"/>
							<path fill="#F3988F" d="M489.914,272.158c0,0-10.61,14.249-10.104,13.594c0.506-0.655,8.32-23.027,8.32-23.027
								L489.914,272.158z"/>
						</g>
						<g>
							<path fill="#F8AFA5" d="M505.083,253.005l-30.412,39.403c-3.993,5.173-2.718,12.654,2.764,16.212h0
								c5.472,3.552,12.811,1.685,15.92-4.051l25.314-46.704L505.083,253.005z"/>
							<g>
								<circle fill="#F8AFA5" cx="516.811" cy="251.187" r="12.545"/>
								<path fill="#F8AFA5" d="M525.958,243.646c0,0,3.433-3.565-2.657-6.063c-6.09-2.498-13.62-1.925-18.427,9.747
									L525.958,243.646z"/>
							</g>
							<g>
								<path fill="#37305F" d="M532.267,218.744l12.734,5.521c0.708,0.307,0.966,1.147,0.576,1.876l-16.752,31.29
									c-0.39,0.729-1.281,1.071-1.989,0.764l-12.734-5.521c-0.708-0.307-0.966-1.147-0.576-1.876l16.752-31.29
									C530.668,218.779,531.559,218.437,532.267,218.744z"/>
								<path fill="#261C43" d="M531.051,218.19l12.734,5.521c0.708,0.307,0.966,1.147,0.576,1.876l-16.752,31.29
									c-0.39,0.729-1.281,1.071-1.989,0.764l-12.734-5.521c-0.708-0.307-0.966-1.147-0.576-1.876l16.752-31.29
									C529.452,218.225,530.343,217.883,531.051,218.19z"/>
								<polygon fill="#E6E6E5" points="529.615,221.374 540.803,226.225 527.151,251.726 515.962,246.875 								"/>
								<polygon fill="#FFFFFF" points="540.803,226.225 515.962,246.875 529.615,221.374 								"/>
							</g>
							<path fill="#F8AFA5" d="M519.645,236.544c0,0,2.835,0.553,5.394,2.003c1.127,0.639,1.705,1.94,1.392,3.197l0,0
								c-0.285,1.146-1.246,2-2.418,2.147l-6.62,0.835c0,0-3.454,5.953-7.967,6.622l4.14-10.452L519.645,236.544z"/>
						</g>
					</g>
					<g>
						<g>
							<path fill="#6ECCDE" d="M435.1,187.634c-0.731-0.004,46.946,6.597,54.814,60.955l-24.74,3.79l-4.988,41.037h-69.016
								l-13.702-75.82c0,0,15.29-21.914,43.682-29.962H435.1z"/>
							
								<line fill="none" stroke="#282828" stroke-width="1.2333" stroke-linecap="round" stroke-linejoin="round" stroke-miterlimit="10" x1="465.174" y1="252.379" x2="467.321" y2="228.645"/>
						</g>
					</g>
				</g>
				<g>
					<path fill="#F8AFA5" d="M439.631,188.411V169.53h-22.126v19.103c-1.132,0.338-3.017,1.02-5.944,2.411l17.257,10.28
						l17.642-10.28C446.461,191.043,443.66,189.415,439.631,188.411z"/>
					<path fill="#282828" d="M417.3,171.837c0,0,3.974,10.551,14.582,9.641c9.749-0.837,8.198-15.46,8.198-15.46L417.3,171.837z"/>
					<g>
						<path fill="#F3988F" d="M407.651,157.804c-3.468,3.146-11.223-8.786-7.872-12.136c3.351-3.35,5.907,1.906,5.907,1.906
							l1.496,3.561l1.129,4.824l0.268,1.263L407.651,157.804z"/>
						<g>
							<g>
								
									<path fill="none" stroke="#282828" stroke-width="0.9928" stroke-linecap="round" stroke-linejoin="round" stroke-miterlimit="10" d="
									M401.398,149.895c0,0,2.625-1.181,4.957,2.625"/>
							</g>
						</g>
					</g>
					<g>
						<path fill="#F3988F" d="M448.664,157.442c3.19,3.428,11.926-7.805,8.87-11.426c-3.056-3.621-6.047,1.399-6.047,1.399
							l-1.792,3.422l-1.533,4.711l-0.374,1.236L448.664,157.442z"/>
						<g>
							<g>
								
									<path fill="none" stroke="#282828" stroke-width="0.9928" stroke-linecap="round" stroke-linejoin="round" stroke-miterlimit="10" d="
									M455.563,150.09c0,0-2.516-1.399-5.161,2.196"/>
							</g>
						</g>
					</g>
					<g>
						<path fill="#282828" d="M401.568,134.287c0,15.794,12.042,23.284,26.896,23.284s26.896-7.489,26.896-23.284
							c0-15.794-12.042-26.539-26.896-26.539S401.568,118.492,401.568,134.287z"/>
					</g>
					<path fill="#F8AFA5" d="M405.223,135.385c0,9.696,1.37,18.063,2.737,24.001c1.339,5.814,5.107,9.877,10.431,13.147l0.97,0.596
						c5.633,3.46,12.912,3.541,18.632,0.206l0,0c5.769-3.363,9.808-7.797,11.051-14.036c2.261-11.348,2.508-23.915,2.508-23.915
						s2.151-24.477-22.834-24.001C403.733,111.86,405.223,135.385,405.223,135.385z"/>
					<g>
						
							<path fill="none" stroke="#282828" stroke-width="1.2316" stroke-linecap="round" stroke-linejoin="round" stroke-miterlimit="10" d="
							M426.871,149.354v3.387c0,0.201,0.039,0.393,0.109,0.569c0.278,0.692,1.077,1.024,1.799,0.832l1.553-0.412"/>
						<path fill="#282828" d="M422.899,136.219l-12.417,2.91c0,0,0.564-3.16,5.644-4.308
							C421.205,133.673,422.899,136.219,422.899,136.219z"/>
						<path fill="#282828" d="M433.919,136.219l11.99,2.91c0,0-0.545-3.16-5.45-4.308
							C435.554,133.673,433.919,136.219,433.919,136.219z"/>
						<ellipse fill="#282828" cx="418.181" cy="145.341" rx="2.094" ry="2.088"/>
						<ellipse fill="#282828" cx="438.034" cy="145.341" rx="2.094" ry="2.088"/>
						<path fill="#FFFFFF" d="M420.275,158.085h16.148C436.424,158.085,429.267,166.791,420.275,158.085z"/>
						<g>
							<circle fill="none" stroke="#C18CBE" stroke-width="1.3423" stroke-miterlimit="10" cx="417.3" cy="146.152" r="8.905"/>
							<circle fill="none" stroke="#C18CBE" stroke-width="1.3423" stroke-miterlimit="10" cx="439.176" cy="146.152" r="8.905"/>
							<path fill="none" stroke="#C18CBE" stroke-width="1.3423" stroke-miterlimit="10" d="M426.205,146.152
								c0,0,2.109-1.968,4.066,0"/>
							
								<line fill="none" stroke="#C18CBE" stroke-width="1.3423" stroke-miterlimit="10" x1="408.395" y1="146.152" x2="405.59" y2="146.081"/>
							
								<line fill="none" stroke="#C18CBE" stroke-width="1.3423" stroke-miterlimit="10" x1="448.081" y1="146.152" x2="450.903" y2="146.081"/>
						</g>
					</g>
					<path fill="#282828" d="M451.23,143.5c0,0-9.989-13.504-7.685-27.185c0,0,7.414,3.731,9.345,13.362
						C454.821,139.307,451.23,143.5,451.23,143.5z"/>
					<path fill="#282828" d="M405.207,144.415c0,0,11.604-15.338,9.3-29.019c0,0-8.048,4.649-9.979,14.28
						C402.596,139.307,405.207,144.415,405.207,144.415z"/>
					<path fill="#282828" d="M450.392,121.703c0,0-12.827,14.042-47.92,11.638c0,0,5.374-20.606,22.381-22.8
						C424.853,110.541,444.491,108.196,450.392,121.703z"/>
					<circle fill="#282828" cx="449.492" cy="105.288" r="16.756"/>
				</g>
			</g>
			<g>
				<path fill="#282828" d="M244.948,290.457l-31.208-4.156l0.285-3.625l-36.502,4.861c0,0-19.922,53.389-2.192,164.385h25.387
					l8.85-112.549h3.245l9.137,112.549h25.387C265.065,340.926,244.948,290.457,244.948,290.457z"/>
				<g>
					<path fill="#282828" d="M242.459,138.613c-4.224-4.969-7.606-10.766-10.48-18.901c-3.086-8.732-13.189-5.183-13.189-5.183
						s-8.419-10.831-21.088-7.058c-12.669,3.772-17.071,12.788-17.329,23.506c-0.258,10.718-8.689,12.395-15.181,24.794
						c-11.461,21.89,7.835,40.327,42.959,35.213l0.047-0.341c3.458,1.05,7.698,1.509,12.873,1.202
						C263.266,189.338,259.195,158.302,242.459,138.613z"/>
					<g>
						<path fill="#F3988F" d="M228.644,154.846c3.468,3.146,11.223-8.786,7.872-12.136s-5.907,1.906-5.907,1.906l-1.496,3.562
							l-1.129,4.824l-0.268,1.263L228.644,154.846z"/>
						<g>
							<g>
								
									<path fill="none" stroke="#282828" stroke-width="0.9928" stroke-linecap="round" stroke-linejoin="round" stroke-miterlimit="10" d="
									M234.897,146.936c0,0-2.625-1.181-4.957,2.625"/>
							</g>
						</g>
					</g>
					<g>
						<path fill="#F3988F" d="M187.631,154.484c-3.19,3.428-11.926-7.805-8.87-11.426c3.056-3.621,6.047,1.399,6.047,1.399
							l1.792,3.422l1.533,4.711l0.374,1.236L187.631,154.484z"/>
						<g>
							<g>
								
									<path fill="none" stroke="#282828" stroke-width="0.9928" stroke-linecap="round" stroke-linejoin="round" stroke-miterlimit="10" d="
									M180.732,147.132c0,0,2.516-1.399,5.161,2.196"/>
							</g>
						</g>
					</g>
					<g>
						<path fill="#282828" d="M234.727,131.328c0,15.794-12.042,23.284-26.896,23.284s-26.896-7.489-26.896-23.284
							s12.042-26.539,26.896-26.539S234.727,115.534,234.727,131.328z"/>
					</g>
					<rect x="196.663" y="166.572" fill="#F8AFA5" width="22.126" height="28.651"/>
					<path fill="#282828" d="M193.435,164.785c0,0,6.159,12.292,13.736,14.211c2.025,0.513,4.186,0.337,6.138-0.355
						c2.852-1.011,6.468-5.263,7.083-9.968l0.285-2.688C220.677,165.986,207.194,173.327,193.435,164.785z"/>
					<path fill="#F8AFA5" d="M231.071,132.427c0,9.696-1.37,18.063-2.737,24.001c-1.339,5.814-5.107,9.877-10.431,13.147
						l-0.97,0.596c-5.633,3.46-12.912,3.541-18.632,0.206v0c-5.769-3.363-9.808-7.797-11.051-14.036
						c-2.261-11.347-2.508-23.915-2.508-23.915s-2.151-24.477,22.834-24.001C232.561,108.901,231.071,132.427,231.071,132.427z"/>
					<g>
						
							<path fill="none" stroke="#282828" stroke-width="1.2298" stroke-linecap="round" stroke-linejoin="round" stroke-miterlimit="10" d="
							M206.161,147.721v2.012c0,0.2,0.039,0.392,0.109,0.568c0.278,0.69,1.077,1.021,1.799,0.83l1.553-0.411"/>
						<path fill="#282828" d="M211.367,134.453l13.293,3.146c0,0-0.604-3.416-6.042-4.657S211.367,134.453,211.367,134.453z"/>
						<path fill="#282828" d="M204.388,134.453l-13.463,3.146c0,0,0.612-3.416,6.12-4.657
							C202.552,131.7,204.388,134.453,204.388,134.453z"/>
						<ellipse fill="#282828" cx="197.471" cy="142.703" rx="2.094" ry="2.082"/>
						<ellipse fill="#282828" cx="217.324" cy="142.703" rx="2.094" ry="2.082"/>
						<path fill="#FFFFFF" d="M198.182,154.612h18.379c0,0-1.297,5.05-9.631,5.05C200.583,159.662,198.182,154.612,198.182,154.612z
							"/>
					</g>
					<path fill="#282828" d="M185.064,140.542c0,0,9.989-13.504,7.685-27.185c0,0-7.414,3.731-9.345,13.362
						C181.473,136.348,185.064,140.542,185.064,140.542z"/>
					<path fill="#282828" d="M231.088,140.092c0,0-11.604-13.973-9.3-27.654c0,0,8.048,4.65,9.979,14.28
						C233.698,136.348,231.088,140.092,231.088,140.092z"/>
					<path fill="#282828" d="M185.902,118.745c0,0,11.462,15.406,46.555,13.003c0,0-4.009-21.97-21.016-24.165
						C211.441,107.583,191.804,105.238,185.902,118.745z"/>
				</g>
				<g>
					<g>
						<g>
							<path fill="#F8AFA5" d="M153.912,358.225c-0.51,0.803,29.208-129.305,20.385-127.338c-0.805,0.179-16.258,1.614-18.555,6.284
								c-6.658,13.536-11.432,120.067-11.432,120.067L153.912,358.225z"/>
							<path fill="#F8AFA5" d="M144.311,357.239c0,0-4.79,22.225,13.318,24.655c1.193,0.16,2.346-0.544,2.739-1.682l0.052-0.151
								c0.433-1.256-0.196-2.602-1.409-3.144c-2.952-1.32-7.531-4.655-5.259-12.23c0,0,2.617-0.321,4.062,4.561
								c0.372,1.256,1.781,1.887,2.952,1.298l0,0c0.798-0.402,1.248-1.261,1.136-2.148c-0.434-3.42-2.155-11.651-8.755-13.861
								L144.311,357.239z"/>
						</g>
						<path fill="#F3988F" d="M150.404,268.433c0,0,17.123,24.114,17.213,23.648c0.09-0.466,5.988-33.856,5.988-33.856l-20.778-9
							L150.404,268.433z"/>
					</g>
					<g>
						<path fill="#05867C" d="M197.981,190.506c0.731-0.004-42.318,0.767-50.186,55.124l24.74,3.79l4.988,41.037h69.016
							l13.702-75.82c0,0-9.741-16.427-38.133-24.475L197.981,190.506z"/>
						<path fill="#F8AFA5" d="M176.939,197.077c0,0,6.084,8.076,31.011,8.076c24.695,0,31.01-8.499,31.01-8.499
							s-14.558-8.134-31.451-10.765C207.509,185.888,192.425,188.575,176.939,197.077z"/>
					</g>
				</g>
			</g>
			<g>
				<g>
					<g>
						<polygon fill="#025784" points="261.637,369.28 261.697,477.685 315.326,477.685 319.447,369.28 						"/>
						<polygon fill="#025784" points="378.079,369.28 378.02,477.685 324.391,477.685 320.27,369.28 						"/>
						<rect x="293.34" y="369.28" fill="#025784" width="55.449" height="37.662"/>
					</g>
					
						<line fill="none" stroke="#282828" stroke-width="1.3968" stroke-linecap="round" stroke-linejoin="round" stroke-miterlimit="10" x1="301.085" y1="406.941" x2="339.331" y2="406.941"/>
				</g>
				<g>
					<g>
						<g>
							<path fill="#F8AFA5" d="M411.958,274.676c3.325,36.734-0.182,63.499,0.788,131.092l-32.008,1.341l-4.77-126.522
								L411.958,274.676z"/>
							<path fill="#F3988F" d="M379.916,303.341c0,0,19.822-1.815,33.373-10.753l-0.357-7.867l-33.028,4.498L379.916,303.341z"/>
						</g>
						<path fill="#C18CBE" d="M348.117,190.101c0,0,62.96,15.833,74.367,95.748c0,0-30.814,13.359-61.694,7.613l6.947-26.729
							L348.117,190.101z"/>
					</g>
					<g>
						<g>
							<path fill="#F8AFA5" d="M160.057,223.33l46.878,55.361l-14.345,40.398c0,0-35.63-49.537-51.64-87.826L160.057,223.33z"/>
							<g>
								<g>
									<g>
										<path fill="#F8AFA5" d="M161.598,225.328c0,0-16.461,9.3-20.648,5.936c-7.317-5.879-13.364-27.399-13.364-27.399
											s30.782-11.605,30.493-11.151C157.79,193.167,161.598,225.328,161.598,225.328z"/>
										<path fill="#F8AFA5" d="M161.598,225.328c-0.291-1.657,6.104-19.535,8.296-26.239c0.529-1.617-0.586-3.39-2.341-3.726l0,0
											c-1.143-0.219-2.952-0.078-3.808,1.561l-7.721,13.196L161.598,225.328z"/>
										<path fill="#F8AFA5" d="M161.033,206.002l-5.301-26.373c-0.314-1.755-2.078-2.964-3.837-2.632l0,0
											c-1.523,0.288-2.527,1.644-2.347,3.171l2.31,19.638L161.033,206.002z"/>
										<path fill="#F8AFA5" d="M150.492,196.274l-7.199-18.833c-0.595-1.649-2.451-2.563-4.09-2.014l0,0
											c-1.421,0.476-2.218,1.908-1.882,3.378l5.342,21.761L150.492,196.274z"/>
										<path fill="#F8AFA5" d="M142.755,201.827l-9.108-18.505c-0.836-1.717-2.915-2.515-4.623-1.772l0,0
											c-1.604,0.697-2.314,2.514-1.627,4.166l7.261,17.47L142.755,201.827z"/>
										<path fill="#F8AFA5" d="M127.586,203.864l-7.147-11.336c-0.592-1.334-0.046-2.829,1.249-3.421l0,0
											c1.239-0.566,2.77-0.121,3.571,1.039l9.398,13.038L127.586,203.864z"/>
									</g>
								</g>
								
									<path fill="none" stroke="#282828" stroke-width="1.5317" stroke-linecap="round" stroke-linejoin="round" stroke-miterlimit="10" d="
									M159.593,204.02c0,0-10.733-1.126-11.836,13.178"/>
							</g>
						</g>
						<g>
							<g>
								<path fill="#F8AFA5" d="M183.082,300.195c0,0,8.817,30.513,26.386,26.456c17.57-4.057,44.953-41.582,44.953-41.582
									l-6.129-64.074l-49.314,60.694L183.082,300.195z"/>
								<path fill="#F3988F" d="M214.275,262.835c0,0,16.649,25.113,30.851,33.968l9.296-11.734l-35.861-27.741L214.275,262.835z"/>
							</g>
							<path fill="#C18CBE" d="M287.116,188.716c0,0-48.881,11.018-74.928,67.826c0,0,15.738,23.714,40.969,34.254l16.892-20.694
								L287.116,188.716z"/>
						</g>
					</g>
					<g>
						<path fill="#C18CBE" d="M287.116,188.54c-19.094,9.794-31.098,22.783-31.098,22.783l3.767,166.06h120.327l-0.39-165.203
							c0,0-15.168-14.842-31.606-22.078C334.155,183.955,300.69,181.578,287.116,188.54z"/>
						
							<path fill="none" stroke="#282828" stroke-width="1.3968" stroke-linecap="round" stroke-linejoin="round" stroke-miterlimit="10" d="
							M344.054,269.457L344.054,269.457c-9.243,0-16.736-7.493-16.736-16.736v-16.736h33.473v16.736
							C360.79,261.964,353.297,269.457,344.054,269.457z"/>
						
							<line fill="none" stroke="#282828" stroke-width="1.3968" stroke-linecap="round" stroke-linejoin="round" stroke-miterlimit="10" x1="379.916" y1="294.079" x2="381.477" y2="239.756"/>
						
							<line fill="none" stroke="#282828" stroke-width="1.3968" stroke-linecap="round" stroke-linejoin="round" stroke-miterlimit="10" x1="257.867" y1="285.025" x2="255.267" y2="237.936"/>
					</g>
				</g>
				<g>
					<path fill="#282828" d="M288.526,127.887l-5.016-24.815c-0.282-2.021-1.066-5.141-0.106-8.071
						c1.589-4.849,7.428-14.162,17.407-9.898l2.157,9.825c0,0-10.364,2.092-14.521,15.65L288.526,127.887z"/>
					<path fill="#282828" d="M300.077,90.226c-0.182,3.26-3.059,17.527-13.177,22.724C286.899,112.95,278.037,93.944,300.077,90.226
						z"/>
					<path fill="#F8AFA5" d="M335.57,183.971L335.57,183.971v-42.137h-38.844v42.137l-11.563,5.271c0,0,2.712,17.464,31.392,17.851
						c28.68,0.387,31.562-16.992,31.562-16.992L335.57,183.971z"/>
					<path fill="#282828" d="M300.812,85.104c0,0,7.129-18.806,29.112-8.808c13.306,6.051,17.032,14.165,18.618,19.913
						c0.527,1.91,0.737,4.919,0.594,6.705l-5.318,24.973l-20.759-34.552l-20.089,1.593L300.812,85.104z"/>
					<g>
						<path fill="#F3988F" d="M343.817,127.887c0,0,2.619-4.165,8.02-2.117c5.401,2.049,2.958,15.166-5.144,16.838
							c0,0-2.904,0.633-5.182-1.355C341.511,141.253,343.504,131.564,343.817,127.887z"/>
						<g>
							<g>
								
									<path fill="none" stroke="#282828" stroke-width="1.3968" stroke-linecap="round" stroke-linejoin="round" stroke-miterlimit="10" d="
									M350.766,130.398c0,0-4.525-1.51-7.736,5.153"/>
							</g>
						</g>
					</g>
					<g>
						<path fill="#F3988F" d="M288.526,127.887c0,0-2.619-4.165-8.02-2.117c-5.401,2.049-2.958,15.166,5.144,16.838
							c0,0,2.904,0.633,5.182-1.355C290.832,141.253,288.84,131.564,288.526,127.887z"/>
						<g>
							<g>
								
									<path fill="none" stroke="#282828" stroke-width="1.3968" stroke-linecap="round" stroke-linejoin="round" stroke-miterlimit="10" d="
									M281.577,130.398c0,0,4.525-1.51,7.736,5.153"/>
							</g>
						</g>
					</g>
					<path fill="#F8AFA5" d="M344.358,115.439c0.003,7.908-0.774,24.452-5.635,34.272c-4.565,9.22-12.114,14.182-22.011,14.477
						c-9.898,0.296-17.271-3.519-23.18-15.485c-5.909-11.966-5.627-33.117-5.627-33.117s0-28.249,27.92-28.249
						C345.231,87.337,344.358,115.439,344.358,115.439z"/>
					<path fill="#282828" d="M297.017,154.601c0,0,3.253,16.505,17.618,18.402c16.532,2.182,20.935-17.982,20.935-17.982
						s-7.305,9.154-18.858,9.168C303.827,164.204,297.017,154.601,297.017,154.601z"/>
					<g>
						
							<path fill="none" stroke="#282828" stroke-width="1.3968" stroke-linecap="round" stroke-linejoin="round" stroke-miterlimit="10" d="
							M314.14,127.167v6.538c0,0.281,0.054,0.55,0.153,0.796c0.387,0.968,1.502,1.432,2.51,1.164l2.167-0.576"/>
						<circle fill="#282828" cx="303.353" cy="124.045" r="2.542"/>
						<circle fill="#282828" cx="327.183" cy="124.045" r="2.542"/>
						<path fill="#282828" d="M320.677,111.4l17.089,4.414c0,0-0.777-4.793-7.768-6.535
							C323.008,107.538,320.677,111.4,320.677,111.4z"/>
						<path fill="#282828" d="M310.058,111.4l-17.089,4.414c0,0,0.777-4.793,7.768-6.535
							C307.728,107.538,310.058,111.4,310.058,111.4z"/>
						
							<path fill="none" stroke="#282828" stroke-width="1.3968" stroke-linecap="round" stroke-linejoin="round" stroke-miterlimit="10" d="
							M306.66,140.292c0,0,2.521,1.932,9.15,1.932c6.029,0,9.794-1.932,9.794-1.932"/>
						<g>
							<circle fill="none" stroke="#FFFFFF" stroke-width="1.9514" stroke-miterlimit="10" cx="302.669" cy="124.788" r="10.8"/>
							<circle fill="none" stroke="#FFFFFF" stroke-width="1.9514" stroke-miterlimit="10" cx="329.201" cy="124.788" r="10.8"/>
							<path fill="none" stroke="#FFFFFF" stroke-width="1.9514" stroke-miterlimit="10" d="M313.469,124.788
								c0,0,2.558-2.387,4.932,0"/>
							
								<line fill="none" stroke="#FFFFFF" stroke-width="1.9514" stroke-miterlimit="10" x1="291.869" y1="124.788" x2="288.248" y2="124.696"/>
							
								<line fill="none" stroke="#FFFFFF" stroke-width="1.9514" stroke-miterlimit="10" x1="340.002" y1="124.788" x2="344.044" y2="124.722"/>
						</g>
					</g>
					<path fill="#282828" d="M297.017,90.87c0,0,5.187,14.735,28.591,14.283c15.903-0.307,19.703,11.201,19.703,11.201
						s-2.768-25.727-3.496-25.484c-0.728,0.243-24.199-6.263-24.199-6.263L297.017,90.87z"/>
				</g>
			</g>
		</g>
	</g>
</g>
</svg>
