<?xml version="1.0" encoding="utf-8"?>
<!-- Generator: Adobe Illustrator 17.0.0, SVG Export Plug-In . SVG Version: 6.00 Build 0)  -->
<!DOCTYPE svg PUBLIC "-//W3C//DTD SVG 1.1//EN" "http://www.w3.org/Graphics/SVG/1.1/DTD/svg11.dtd">
<svg version="1.1" id="Layer_1" xmlns="http://www.w3.org/2000/svg" xmlns:xlink="http://www.w3.org/1999/xlink" x="0px" y="0px"
	 width="482.712px" height="99.121px" viewBox="0 0 482.712 99.121" enable-background="new 0 0 482.712 99.121"
	 xml:space="preserve">
<g>
	<g>
		<g>
			<path fill="#FFFFFF" d="M45.62,17.019H18.926c-1.054,0-1.907,0.853-1.907,1.907V45.62c0,1.054,0.853,1.907,1.907,1.907H45.62
				c1.054,0,1.907-0.853,1.907-1.907V18.926C47.527,17.872,46.674,17.019,45.62,17.019z M43.713,43.713H20.833V20.833h22.881V43.713
				z"/>
		</g>
	</g>
	<g>
		<g>
			<path fill="#FFFFFF" d="M80.195,17.019H53.501c-1.054,0-1.907,0.853-1.907,1.907V45.62c0,1.054,0.853,1.907,1.907,1.907h26.694
				c1.054,0,1.907-0.853,1.907-1.907V18.926C82.102,17.872,81.249,17.019,80.195,17.019z M78.288,43.713H55.408V20.833h22.881
				V43.713z"/>
		</g>
	</g>
	<g>
		<g>
			<path fill="#FFFFFF" d="M72.568,24.646h-11.44c-1.054,0-1.907,0.853-1.907,1.907v11.44c0,1.054,0.853,1.907,1.907,1.907h11.44
				c1.054,0,1.907-0.853,1.907-1.907v-11.44C74.475,25.499,73.622,24.646,72.568,24.646z"/>
		</g>
	</g>
	<g>
		<g>
			<path fill="#FFFFFF" d="M37.993,24.646h-11.44c-1.054,0-1.907,0.853-1.907,1.907v11.44c0,1.054,0.853,1.907,1.907,1.907h11.44
				c1.054,0,1.907-0.853,1.907-1.907v-11.44C39.9,25.499,39.047,24.646,37.993,24.646z"/>
		</g>
	</g>
	<g>
		<g>
			<path fill="#FFFFFF" d="M37.993,59.221h-11.44c-1.054,0-1.907,0.853-1.907,1.907v11.44c0,1.054,0.853,1.907,1.907,1.907h11.44
				c1.054,0,1.907-0.853,1.907-1.907v-11.44C39.9,60.074,39.047,59.221,37.993,59.221z"/>
		</g>
	</g>
	<g>
		<g>
			<path fill="#FFFFFF" d="M45.62,51.594H18.926c-1.054,0-1.907,0.853-1.907,1.907v26.694c0,1.054,0.853,1.907,1.907,1.907H45.62
				c1.054,0,1.907-0.853,1.907-1.907V53.501C47.527,52.447,46.674,51.594,45.62,51.594z M43.713,78.288H20.833V55.408h22.881V78.288
				z"/>
		</g>
	</g>
	<g>
		<g>
			<path fill="#FFFFFF" d="M80.195,63.035c-1.054,0-1.907,0.853-1.907,1.907v5.72h-9.534c-1.054,0-1.907,0.853-1.907,1.907v5.72
				h-11.44v-5.72c0-1.054-0.853-1.907-1.907-1.907s-1.907,0.853-1.907,1.907v7.627c0,1.054,0.853,1.907,1.907,1.907h15.254
				c1.054,0,1.907-0.853,1.907-1.907v-5.72h9.534c1.054,0,1.907-0.853,1.907-1.907v-7.627
				C82.102,63.888,81.249,63.035,80.195,63.035z"/>
		</g>
	</g>
	<g>
		<g>
			<path fill="#FFFFFF" d="M64.941,51.594h-11.44c-1.054,0-1.907,0.853-1.907,1.907v11.44c0,1.054,0.853,1.907,1.907,1.907
				c1.054,0,1.907-0.853,1.907-1.907v-9.534h7.627v1.907c0,1.054,0.853,1.907,1.907,1.907c1.054,0,1.907-0.853,1.907-1.907v-3.813
				C66.848,52.447,65.995,51.594,64.941,51.594z"/>
		</g>
	</g>
	<g>
		<g>
			<path fill="#FFFFFF" d="M80.195,51.594h-7.627c-1.054,0-1.907,0.853-1.907,1.907v9.534h-9.534c-1.054,0-1.907,0.853-1.907,1.907
				v7.627c0,1.054,0.853,1.907,1.907,1.907c1.054,0,1.907-0.853,1.907-1.907v-5.72h9.534c1.054,0,1.907-0.853,1.907-1.907v-9.534
				h5.72c1.054,0,1.907-0.853,1.907-1.907S81.249,51.594,80.195,51.594z"/>
		</g>
	</g>
	<g>
		<g>
			<path fill="#FFFFFF" d="M80.195,78.288h-3.813c-1.054,0-1.907,0.853-1.907,1.907c0,1.054,0.853,1.907,1.907,1.907h3.813
				c1.054,0,1.907-0.853,1.907-1.907S81.249,78.288,80.195,78.288z"/>
		</g>
	</g>
</g>
<g>
	<path fill="#FFFFFF" d="M3.872,30.975c2.138,0,3.872-1.733,3.872-3.872V7.744h19.36c2.138,0,3.872-1.733,3.872-3.872
		S29.242,0,27.103,0H3.872C1.733,0,0,1.733,0,3.872v23.232C0,29.242,1.733,30.975,3.872,30.975z"/>
	<path fill="#FFFFFF" d="M27.103,91.377H7.744v-19.36c0-2.138-1.733-3.872-3.872-3.872S0,69.879,0,72.018v23.232
		c0,2.138,1.733,3.872,3.872,3.872h23.232c2.138,0,3.872-1.733,3.872-3.872S29.242,91.377,27.103,91.377z"/>
	<path fill="#FFFFFF" d="M95.249,0H72.018c-2.138,0-3.872,1.733-3.872,3.872s1.733,3.872,3.872,3.872h19.36v19.36
		c0,2.138,1.733,3.872,3.872,3.872s3.872-1.733,3.872-3.872V3.872C99.121,1.733,97.388,0,95.249,0z"/>
	<path fill="#FFFFFF" d="M95.249,68.146c-2.138,0-3.872,1.733-3.872,3.872v19.36h-19.36c-2.138,0-3.872,1.733-3.872,3.872
		s1.733,3.872,3.872,3.872h23.232c2.138,0,3.872-1.733,3.872-3.872V72.018C99.121,69.879,97.388,68.146,95.249,68.146z"/>
</g>
<g>
	<g>
		<path fill="#FFFFFF" d="M151.911,39.337c0.217,0.347,0.326,0.825,0.326,1.43c0,1.159-0.275,2.054-0.824,2.692
			c-1.301,1.59-2.619,2.863-3.948,3.815c-1.33,0.955-2.906,1.433-4.729,1.433c-2.227,0-4.02-0.635-5.379-1.908
			c-1.361-1.273-2.039-2.966-2.039-5.077c0-1.129,0.578-1.938,1.735-2.429c1.271-0.548,2.183-1.134,2.733-1.758
			c0.55-0.621,0.824-1.379,0.824-2.277c0-0.52-0.107-0.91-0.324-1.171c-0.217-0.261-0.484-0.391-0.803-0.391
			c-0.78,0-1.642,0.564-2.581,1.692c-0.94,1.129-1.815,2.581-2.625,4.361c-0.81,1.777-1.446,3.606-1.908,5.487
			c-0.319,1.36-0.688,2.277-1.107,2.754s-1.077,0.716-1.973,0.716c-0.897,0-1.555-0.326-1.974-0.977
			c-0.419-0.651-0.701-1.655-0.847-3.015c-0.145-1.36-0.216-3.354-0.216-5.986c0-4.453,0.455-9.095,1.366-13.925
			c0.91-4.83,2.255-8.886,4.034-12.17c1.779-3.281,3.912-4.923,6.399-4.923c1.33,0,2.408,0.571,3.232,1.712
			c0.825,1.144,1.236,2.625,1.236,4.448c0,2.921-0.853,5.95-2.559,9.088c-1.707,3.138-4.483,6.805-8.33,10.997
			c-0.087,1.505-0.13,3.052-0.13,4.642c1.388-3.615,2.978-6.239,4.772-7.874c1.794-1.634,3.471-2.45,5.033-2.45
			c1.446,0,2.609,0.491,3.492,1.475c0.882,0.984,1.323,2.198,1.323,3.643c0,1.592-0.406,3.052-1.214,4.381
			c-0.81,1.332-2.198,2.518-4.165,3.558c0.115,0.782,0.471,1.411,1.064,1.889c0.592,0.478,1.308,0.714,2.147,0.714
			c0.897,0,1.764-0.345,2.604-1.039c0.839-0.695,1.938-1.851,3.297-3.471c0.346-0.404,0.737-0.608,1.171-0.608
			C151.398,38.816,151.696,38.989,151.911,39.337z M135.405,14.239c-0.636,1.491-1.251,3.501-1.844,6.031s-1.077,5.285-1.453,8.265
			c1.792-2.111,3.275-4.411,4.446-6.898s1.757-4.744,1.757-6.768c0-0.925-0.102-1.634-0.304-2.126
			c-0.202-0.491-0.493-0.737-0.867-0.737C136.62,12.006,136.04,12.751,135.405,14.239z"/>
		<path fill="#FFFFFF" d="M149.765,46.756c-1.071-1.303-1.605-3.009-1.605-5.121c0-2.312,0.535-4.505,1.605-6.573
			c1.069-2.066,2.494-3.73,4.273-4.988c1.779-1.259,3.666-1.887,5.662-1.887c0.635,0,1.062,0.123,1.279,0.369
			c0.217,0.246,0.398,0.687,0.543,1.323c0.607-0.115,1.243-0.174,1.908-0.174c1.418,0,2.126,0.506,2.126,1.518
			c0,0.607-0.217,2.054-0.65,4.338c-0.666,3.327-0.999,5.639-0.999,6.942c0,0.434,0.109,0.782,0.326,1.042
			c0.217,0.258,0.499,0.388,0.845,0.388c0.55,0,1.216-0.353,1.996-1.061c0.782-0.708,1.837-1.859,3.167-3.449
			c0.347-0.404,0.738-0.608,1.171-0.608c0.376,0,0.673,0.174,0.89,0.521c0.217,0.347,0.326,0.825,0.326,1.43
			c0,1.159-0.275,2.054-0.825,2.692c-1.186,1.474-2.444,2.716-3.773,3.729c-1.331,1.015-2.619,1.52-3.862,1.52
			c-0.954,0-1.829-0.326-2.624-0.977c-0.796-0.651-1.396-1.539-1.801-2.668c-1.505,2.429-3.399,3.644-5.684,3.644
			C152.265,48.707,150.834,48.056,149.765,46.756z M157.443,43.198c0.578-0.752,0.999-1.75,1.258-2.993l1.605-7.984
			c-1.214,0.03-2.335,0.484-3.361,1.366c-1.027,0.883-1.844,2.047-2.452,3.494s-0.91,2.977-0.91,4.597
			c0,0.898,0.18,1.563,0.541,1.997c0.362,0.431,0.86,0.649,1.497,0.649C156.257,44.325,156.865,43.95,157.443,43.198z"/>
		<path fill="#FFFFFF" d="M169.87,46.97c-0.449-1.156-0.672-3.007-0.672-5.552c0-3.758,0.535-7.331,1.605-10.715
			c0.259-0.839,0.687-1.453,1.28-1.844c0.592-0.389,1.423-0.585,2.494-0.585c0.578,0,0.984,0.072,1.216,0.217
			c0.231,0.144,0.346,0.419,0.346,0.824c0,0.463-0.217,1.505-0.65,3.123c-0.29,1.157-0.521,2.17-0.695,3.037
			c-0.174,0.868-0.319,1.938-0.434,3.21c0.955-2.486,2.024-4.511,3.21-6.073c1.186-1.562,2.35-2.674,3.493-3.341
			c1.142-0.665,2.191-0.997,3.145-0.997c1.881,0,2.82,0.94,2.82,2.82c0,0.376-0.129,1.288-0.389,2.733
			c-0.232,1.157-0.347,1.882-0.347,2.17c0,1.012,0.361,1.517,1.084,1.517c0.81,0,1.851-0.635,3.123-1.908
			c0.376-0.376,0.767-0.564,1.172-0.564c0.374,0,0.672,0.167,0.889,0.499c0.217,0.334,0.326,0.773,0.326,1.324
			c0,1.069-0.29,1.908-0.868,2.516c-0.81,0.839-1.757,1.555-2.841,2.147c-1.084,0.594-2.233,0.89-3.449,0.89
			c-1.533,0-2.697-0.391-3.493-1.172c-0.795-0.779-1.193-1.834-1.193-3.167c0-0.434,0.043-0.866,0.13-1.3
			c0.058-0.578,0.087-0.969,0.087-1.172c0-0.463-0.159-0.693-0.478-0.693c-0.433,0-1.004,0.484-1.714,1.453
			c-0.708,0.969-1.41,2.25-2.103,3.84c-0.695,1.59-1.258,3.267-1.692,5.031c-0.319,1.36-0.688,2.277-1.106,2.754
			c-0.421,0.478-1.079,0.716-1.974,0.716C171.092,48.707,170.318,48.129,169.87,46.97z"/>
		<path fill="#FFFFFF" d="M209.087,39.337c0.217,0.347,0.326,0.825,0.326,1.43c0,1.159-0.275,2.054-0.825,2.692
			c-1.071,1.3-2.581,2.502-4.533,3.598c-1.952,1.102-4.042,1.65-6.269,1.65c-3.037,0-5.395-0.825-7.07-2.472
			c-1.678-1.65-2.517-3.905-2.517-6.768c0-1.997,0.419-3.853,1.258-5.575c0.839-1.72,2.003-3.087,3.493-4.099
			c1.49-1.012,3.174-1.518,5.054-1.518c1.677,0,3.022,0.498,4.034,1.497c1.012,0.997,1.518,2.35,1.518,4.056
			c0,1.996-0.715,3.708-2.147,5.141c-1.431,1.433-3.855,2.567-7.267,3.406c0.723,1.33,2.098,1.995,4.122,1.995
			c1.301,0,2.783-0.456,4.446-1.365c1.662-0.912,3.102-2.106,4.316-3.579c0.347-0.404,0.738-0.608,1.172-0.608
			C208.573,38.816,208.87,38.989,209.087,39.337z M194.554,34.391c-0.737,1.244-1.106,2.748-1.106,4.511v0.087
			c1.706-0.404,3.05-1.012,4.034-1.821c0.984-0.811,1.475-1.75,1.475-2.821c0-0.55-0.152-0.99-0.455-1.323
			c-0.304-0.332-0.716-0.499-1.237-0.499C196.196,32.525,195.292,33.148,194.554,34.391z"/>
		<path fill="#FFFFFF" d="M231.862,39.337c0.217,0.347,0.326,0.825,0.326,1.43c0,1.159-0.275,2.054-0.824,2.692
			c-1.301,1.59-2.619,2.863-3.948,3.815c-1.33,0.955-2.906,1.433-4.729,1.433c-2.227,0-4.02-0.635-5.379-1.908
			c-1.361-1.273-2.039-2.966-2.039-5.077c0-1.129,0.578-1.938,1.735-2.429c1.271-0.548,2.183-1.134,2.733-1.758
			c0.55-0.621,0.824-1.379,0.824-2.277c0-0.52-0.107-0.91-0.324-1.171c-0.217-0.261-0.484-0.391-0.803-0.391
			c-0.78,0-1.642,0.564-2.581,1.692c-0.94,1.129-1.815,2.581-2.625,4.361c-0.81,1.777-1.446,3.606-1.908,5.487
			c-0.319,1.36-0.688,2.277-1.107,2.754s-1.077,0.716-1.973,0.716c-0.897,0-1.555-0.326-1.974-0.977
			c-0.419-0.651-0.701-1.655-0.847-3.015c-0.145-1.36-0.216-3.354-0.216-5.986c0-4.453,0.455-9.095,1.366-13.925
			c0.91-4.83,2.255-8.886,4.034-12.17c1.779-3.281,3.912-4.923,6.399-4.923c1.33,0,2.408,0.571,3.232,1.712
			c0.825,1.144,1.236,2.625,1.236,4.448c0,2.921-0.853,5.95-2.559,9.088c-1.707,3.138-4.483,6.805-8.33,10.997
			c-0.087,1.505-0.13,3.052-0.13,4.642c1.388-3.615,2.978-6.239,4.772-7.874c1.794-1.634,3.471-2.45,5.033-2.45
			c1.446,0,2.609,0.491,3.493,1.475c0.882,0.984,1.323,2.198,1.323,3.643c0,1.592-0.406,3.052-1.214,4.381
			c-0.81,1.332-2.198,2.518-4.165,3.558c0.115,0.782,0.471,1.411,1.064,1.889c0.592,0.478,1.308,0.714,2.147,0.714
			c0.897,0,1.764-0.345,2.604-1.039c0.839-0.695,1.938-1.851,3.297-3.471c0.346-0.404,0.737-0.608,1.171-0.608
			C231.349,38.816,231.646,38.989,231.862,39.337z M215.356,14.239c-0.636,1.491-1.251,3.501-1.844,6.031s-1.077,5.285-1.453,8.265
			c1.792-2.111,3.275-4.411,4.446-6.898c1.171-2.487,1.757-4.744,1.757-6.768c0-0.925-0.102-1.634-0.304-2.126
			c-0.202-0.491-0.493-0.737-0.867-0.737C216.57,12.006,215.991,12.751,215.356,14.239z"/>
		<path fill="#FFFFFF" d="M251.666,35.736c0.204,0.377,0.304,0.852,0.304,1.433c0,1.387-0.418,2.212-1.256,2.472
			c-1.737,0.608-3.644,0.952-5.729,1.039c-0.548,2.431-1.634,4.377-3.251,5.837c-1.62,1.46-3.457,2.19-5.511,2.19
			c-1.734,0-3.218-0.418-4.446-1.259c-1.229-0.839-2.163-1.951-2.798-3.341c-0.638-1.387-0.955-2.89-0.955-4.51
			c0-2.198,0.419-4.157,1.258-5.879c0.839-1.72,1.996-3.065,3.471-4.034c1.476-0.969,3.11-1.453,4.904-1.453
			c2.198,0,3.97,0.758,5.313,2.277c1.346,1.518,2.133,3.392,2.364,5.619c1.36-0.087,2.98-0.377,4.86-0.868
			c0.231-0.057,0.434-0.087,0.608-0.087C251.175,35.171,251.465,35.36,251.666,35.736z M238.977,42.981
			c0.681-0.752,1.137-1.837,1.368-3.254c-0.898-0.608-1.585-1.403-2.06-2.388c-0.478-0.982-0.716-2.023-0.716-3.122
			c0-0.463,0.043-0.925,0.13-1.388h-0.217c-1.159,0-2.119,0.556-2.885,1.67c-0.768,1.114-1.151,2.682-1.151,4.707
			c0,1.59,0.312,2.806,0.934,3.644c0.621,0.839,1.351,1.256,2.19,1.256C237.495,44.107,238.299,43.733,238.977,42.981z"/>
		<path fill="#FFFFFF" d="M265.416,45.844c0.117,0.374,0.174,0.765,0.174,1.17c0,1.303-0.795,1.954-2.385,1.954
			c-0.896,0-1.582-0.247-2.06-0.738s-0.917-1.417-1.324-2.776l-0.043-0.174c-1.099,1.36-2.09,2.271-2.971,2.733
			c-0.882,0.464-1.9,0.695-3.058,0.695c-1.764,0-3.216-0.657-4.358-1.973c-1.142-1.316-1.715-3.031-1.715-5.142
			c0-2.312,0.491-4.453,1.476-6.421c0.982-1.966,2.328-3.578,4.035-4.837c1.704-1.258,3.615-2.016,5.726-2.277
			c0.548-5.467,1.596-10.224,3.145-14.273c1.547-4.049,3.606-6.073,6.182-6.073c1.243,0,2.277,0.563,3.102,1.692
			c0.822,1.128,1.235,2.834,1.235,5.118c0,3.182-0.782,6.898-2.342,11.149c-1.563,4.252-3.631,8.634-6.203,13.145
			C264.347,41.188,264.811,43.529,265.416,45.844z M256.936,43.676c0.535-0.434,1.221-1.273,2.062-2.518
			c-0.29-2.111-0.434-4.293-0.434-6.549c0-0.897,0.014-1.59,0.043-2.083c-1.59,0.463-2.906,1.518-3.948,3.167
			c-1.042,1.647-1.56,3.471-1.56,5.465c0,2.111,0.722,3.167,2.168,3.167C255.845,44.325,256.402,44.107,256.936,43.676z
			 M265.395,18.383c-0.735,4.281-1.235,8.936-1.495,13.969c3.21-6.942,4.814-12.581,4.814-16.918c0-1.099-0.092-1.952-0.28-2.56
			c-0.19-0.607-0.412-0.91-0.673-0.91C266.92,11.963,266.133,14.104,265.395,18.383z"/>
	</g>
	<g>
		<path fill="#FFFFFF" d="M126.707,88.72c-0.449-1.156-0.672-3.007-0.672-5.552c0-3.758,0.535-7.332,1.605-10.716
			c0.259-0.839,0.687-1.452,1.279-1.843c0.592-0.391,1.423-0.586,2.494-0.586c0.578,0,0.984,0.073,1.216,0.217
			c0.231,0.144,0.346,0.421,0.346,0.825c0,0.461-0.217,1.503-0.65,3.123c-0.29,1.156-0.521,2.168-0.695,3.037
			s-0.319,1.938-0.434,3.21c0.955-2.488,2.024-4.513,3.21-6.073c1.186-1.563,2.35-2.676,3.493-3.341
			c1.142-0.665,2.191-0.999,3.145-0.999c1.881,0,2.82,0.942,2.82,2.82c0,0.377-0.129,1.289-0.389,2.733
			c-0.232,1.159-0.347,1.881-0.347,2.171c0,1.012,0.361,1.517,1.084,1.517c0.81,0,1.851-0.635,3.123-1.908
			c0.376-0.377,0.767-0.564,1.172-0.564c0.374,0,0.672,0.166,0.889,0.499c0.217,0.331,0.326,0.773,0.326,1.322
			c0,1.072-0.29,1.91-0.868,2.518c-0.81,0.839-1.757,1.555-2.841,2.147c-1.084,0.592-2.233,0.89-3.449,0.89
			c-1.533,0-2.697-0.391-3.493-1.172c-0.795-0.782-1.193-1.837-1.193-3.167c0-0.434,0.043-0.868,0.13-1.303
			c0.058-0.578,0.087-0.969,0.087-1.17c0-0.464-0.159-0.695-0.478-0.695c-0.433,0-1.004,0.486-1.714,1.455
			c-0.708,0.969-1.41,2.247-2.103,3.837c-0.695,1.593-1.258,3.27-1.692,5.034c-0.319,1.36-0.688,2.277-1.106,2.754
			c-0.421,0.478-1.079,0.716-1.974,0.716C127.928,90.457,127.154,89.879,126.707,88.72z"/>
		<path fill="#FFFFFF" d="M165.923,81.087c0.217,0.347,0.326,0.822,0.326,1.43c0,1.159-0.275,2.054-0.825,2.689
			c-1.071,1.303-2.581,2.502-4.533,3.601c-1.952,1.099-4.042,1.65-6.269,1.65c-3.037,0-5.395-0.825-7.07-2.475
			c-1.678-1.647-2.517-3.902-2.517-6.765c0-1.997,0.419-3.853,1.258-5.577c0.839-1.72,2.003-3.085,3.493-4.098
			c1.49-1.012,3.174-1.52,5.054-1.52c1.677,0,3.022,0.499,4.034,1.498c1.012,0.996,1.518,2.35,1.518,4.054
			c0,1.997-0.715,3.71-2.147,5.142c-1.431,1.43-3.855,2.567-7.267,3.406c0.723,1.33,2.098,1.995,4.122,1.995
			c1.301,0,2.783-0.456,4.446-1.368c1.662-0.909,3.102-2.103,4.316-3.577c0.347-0.407,0.738-0.608,1.172-0.608
			C165.409,80.566,165.706,80.739,165.923,81.087z M151.39,76.14c-0.737,1.246-1.106,2.749-1.106,4.513v0.087
			c1.706-0.404,3.05-1.012,4.034-1.824c0.984-0.809,1.475-1.748,1.475-2.82c0-0.548-0.152-0.99-0.455-1.322
			c-0.304-0.334-0.716-0.499-1.237-0.499C153.032,74.275,152.128,74.897,151.39,76.14z"/>
		<path fill="#FFFFFF" d="M167.355,90.37c-0.796-0.695-1.193-1.476-1.193-2.345c0-0.752,0.274-1.4,0.824-1.951
			c0.55-0.548,1.36-0.825,2.43-0.825c0.374,0,0.815,0.038,1.323,0.109c0.505,0.073,0.889,0.125,1.149,0.152
			c-0.03-0.752-0.195-1.46-0.499-2.125c-0.304-0.665-0.687-1.308-1.149-1.929c-0.463-0.624-0.897-1.164-1.301-1.628
			c-0.897,1.707-1.787,3.123-2.669,4.252c-0.882,1.126-1.843,2.198-2.885,3.21c-0.52,0.521-1.071,0.779-1.649,0.779
			c-0.463,0-0.839-0.166-1.128-0.497c-0.289-0.334-0.434-0.746-0.434-1.237c0-0.578,0.204-1.113,0.608-1.606l0.564-0.692
			c1.59-1.967,2.79-3.587,3.6-4.86c0.491-0.839,1.071-1.959,1.735-3.362c0.665-1.403,1.316-2.855,1.952-4.358
			c0.55-1.273,1.692-1.91,3.427-1.91c0.809,0,1.373,0.073,1.692,0.217c0.317,0.147,0.476,0.377,0.476,0.695
			c0,0.174-0.057,0.448-0.172,0.825c-0.117,0.374-0.275,0.752-0.478,1.126c-0.521,1.042-0.782,1.924-0.782,2.649
			c0,0.431,0.152,0.909,0.456,1.43c0.304,0.521,0.773,1.172,1.41,1.951c0.925,1.216,1.627,2.25,2.104,3.102
			c0.478,0.855,0.715,1.788,0.715,2.801c0,0.288-0.028,0.692-0.087,1.213c1.418-0.548,3.081-2.008,4.989-4.38
			c0.347-0.407,0.738-0.608,1.172-0.608c0.374,0,0.672,0.174,0.889,0.521c0.217,0.347,0.326,0.822,0.326,1.43
			c0,1.099-0.275,1.997-0.825,2.689c-1.446,1.794-2.826,3.015-4.142,3.666s-2.943,1.007-4.881,1.064
			c-1.157,0.982-2.531,1.474-4.121,1.474C169.299,91.41,168.15,91.062,167.355,90.37z"/>
		<path fill="#FFFFFF" d="M201.496,81.087c0.217,0.347,0.326,0.822,0.326,1.43c0,1.159-0.275,2.054-0.825,2.689
			c-1.243,1.533-2.602,2.792-4.077,3.775c-1.475,0.985-3.167,1.476-5.076,1.476c-5.9,0-8.849-4.152-8.849-12.45
			c0-1.273,0.043-2.562,0.13-3.862h-1.692c-0.868,0-1.455-0.16-1.757-0.478c-0.304-0.317-0.456-0.825-0.456-1.52
			c0-1.617,0.651-2.429,1.952-2.429h2.472c0.491-3.18,1.243-6.087,2.256-8.72c1.012-2.631,2.233-4.729,3.665-6.29
			c1.433-1.562,2.973-2.342,4.621-2.342c1.214,0,2.168,0.535,2.863,1.605c0.693,1.071,1.041,2.415,1.041,4.034
			c0,4.484-1.881,8.389-5.639,11.714h4.859c0.461,0,0.795,0.103,0.997,0.304c0.202,0.204,0.304,0.578,0.304,1.129
			c0,1.995-1.635,2.993-4.902,2.993h-5.293c-0.058,1.446-0.087,2.573-0.087,3.384c0,3.007,0.354,5.118,1.064,6.334
			c0.708,1.213,1.828,1.821,3.361,1.821c1.244,0,2.343-0.374,3.297-1.126c0.955-0.752,2.083-1.881,3.384-3.384
			c0.347-0.407,0.738-0.608,1.172-0.608C200.981,80.566,201.279,80.739,201.496,81.087z M191.561,58.158
			c-0.535,1.084-1.041,2.589-1.518,4.511c-0.478,1.924-0.875,4.057-1.193,6.399c1.706-1.474,2.986-3.129,3.84-4.966
			c0.852-1.837,1.279-3.507,1.279-5.011c0-1.707-0.319-2.56-0.955-2.56C192.581,56.531,192.096,57.073,191.561,58.158z"/>
		<path fill="#FFFFFF" d="M199.348,88.503c-1.071-1.3-1.605-3.007-1.605-5.118c0-2.315,0.535-4.505,1.605-6.573
			c1.069-2.068,2.494-3.731,4.273-4.988c1.779-1.259,3.666-1.889,5.662-1.889c0.635,0,1.062,0.125,1.28,0.369
			c0.217,0.247,0.398,0.687,0.543,1.324c0.607-0.117,1.243-0.174,1.908-0.174c1.418,0,2.126,0.505,2.126,1.517
			c0,0.608-0.217,2.054-0.65,4.339c-0.666,3.327-0.999,5.639-0.999,6.942c0,0.431,0.109,0.779,0.326,1.039
			c0.217,0.261,0.499,0.391,0.845,0.391c0.55,0,1.216-0.353,1.996-1.061c0.782-0.711,1.837-1.859,3.167-3.449
			c0.347-0.407,0.738-0.608,1.171-0.608c0.376,0,0.673,0.174,0.89,0.521c0.217,0.347,0.326,0.822,0.326,1.43
			c0,1.159-0.275,2.054-0.825,2.689c-1.186,1.476-2.444,2.719-3.773,3.731c-1.331,1.012-2.619,1.52-3.862,1.52
			c-0.954,0-1.829-0.326-2.624-0.977c-0.796-0.651-1.396-1.541-1.801-2.668c-1.505,2.429-3.399,3.644-5.684,3.644
			C201.848,90.457,200.417,89.806,199.348,88.503z M207.026,84.946c0.578-0.752,0.999-1.748,1.258-2.993l1.605-7.981
			c-1.214,0.03-2.335,0.483-3.361,1.365c-1.027,0.885-1.844,2.049-2.452,3.493c-0.608,1.446-0.91,2.98-0.91,4.6
			c0,0.896,0.18,1.56,0.541,1.995c0.362,0.434,0.86,0.651,1.497,0.651C205.84,86.074,206.448,85.7,207.026,84.946z"/>
		<path fill="#FFFFFF" d="M219.932,88.655c-0.825-1.199-1.236-2.695-1.236-4.488c0-2.171,0.144-4.157,0.433-5.965
			c0.289-1.807,0.767-3.726,1.433-5.75c0.288-0.866,0.693-1.487,1.214-1.864c0.52-0.374,1.345-0.564,2.472-0.564
			c0.636,0,1.077,0.103,1.323,0.304c0.246,0.204,0.369,0.507,0.369,0.912c0,0.231-0.159,1.012-0.478,2.342
			c-0.289,1.069-0.52,2.038-0.693,2.906c-0.579,3.037-0.868,5.061-0.868,6.073c0,0.608,0.072,1.034,0.217,1.281
			c0.145,0.244,0.376,0.369,0.695,0.369c0.434,0,0.976-0.434,1.627-1.303c0.65-0.868,1.345-2.185,2.083-3.948
			c0.737-1.764,1.453-3.932,2.147-6.507c0.232-0.866,0.586-1.487,1.064-1.864c0.476-0.374,1.193-0.564,2.148-0.564
			c0.665,0,1.126,0.081,1.387,0.239c0.261,0.16,0.391,0.456,0.391,0.89c0,0.722-0.361,2.703-1.085,5.943
			c-0.809,3.701-1.214,5.986-1.214,6.855c0,0.548,0.115,0.974,0.349,1.278c0.231,0.304,0.535,0.456,0.909,0.456
			c0.578,0,1.265-0.353,2.062-1.061c0.795-0.711,1.856-1.859,3.189-3.449c0.347-0.407,0.735-0.608,1.17-0.608
			c0.377,0,0.673,0.174,0.89,0.521c0.217,0.347,0.326,0.822,0.326,1.43c0,1.159-0.274,2.054-0.825,2.689
			c-1.243,1.533-2.581,2.792-4.014,3.775c-1.43,0.985-3.058,1.476-4.879,1.476c-1.388,0-2.407-0.535-3.058-1.606
			c-0.651-1.069-0.976-2.573-0.976-4.51c-0.493,1.965-1.231,3.476-2.213,4.532c-0.984,1.056-2.039,1.585-3.167,1.585
			C221.82,90.457,220.756,89.857,219.932,88.655z"/>
		<path fill="#FFFFFF" d="M239.495,88.72c-0.448-1.156-0.673-3.007-0.673-5.552c0-3.758,0.535-7.332,1.606-10.716
			c0.261-0.839,0.687-1.452,1.278-1.843c0.594-0.391,1.425-0.586,2.497-0.586c0.578,0,0.982,0.073,1.213,0.217
			c0.231,0.144,0.347,0.421,0.347,0.825c0,0.461-0.217,1.503-0.651,3.123c-0.288,1.156-0.518,2.168-0.692,3.037
			s-0.32,1.938-0.434,3.21c0.952-2.488,2.024-4.513,3.21-6.073c1.186-1.563,2.347-2.676,3.493-3.341
			c1.14-0.665,2.19-0.999,3.145-0.999c1.878,0,2.82,0.942,2.82,2.82c0,0.377-0.13,1.289-0.391,2.733
			c-0.233,1.159-0.347,1.881-0.347,2.171c0,1.012,0.361,1.517,1.085,1.517c0.809,0,1.851-0.635,3.123-1.908
			c0.375-0.377,0.765-0.564,1.17-0.564c0.377,0,0.673,0.166,0.89,0.499c0.217,0.331,0.326,0.773,0.326,1.322
			c0,1.072-0.29,1.91-0.868,2.518c-0.809,0.839-1.756,1.555-2.841,2.147c-1.085,0.592-2.233,0.89-3.449,0.89
			c-1.533,0-2.697-0.391-3.493-1.172c-0.795-0.782-1.191-1.837-1.191-3.167c0-0.434,0.043-0.868,0.13-1.303
			c0.057-0.578,0.087-0.969,0.087-1.17c0-0.464-0.16-0.695-0.478-0.695c-0.434,0-1.007,0.486-1.715,1.455
			c-0.708,0.969-1.408,2.247-2.103,3.837c-0.695,1.593-1.259,3.27-1.693,5.034c-0.317,1.36-0.687,2.277-1.104,2.754
			c-0.421,0.478-1.077,0.716-1.976,0.716C240.717,90.457,239.943,89.879,239.495,88.72z"/>
		<path fill="#FFFFFF" d="M259.517,88.503c-1.069-1.3-1.604-3.007-1.604-5.118c0-2.315,0.535-4.505,1.604-6.573
			s2.494-3.731,4.274-4.988c1.777-1.259,3.666-1.889,5.661-1.889c0.635,0,1.064,0.125,1.281,0.369
			c0.214,0.247,0.396,0.687,0.54,1.324c0.608-0.117,1.243-0.174,1.91-0.174c1.417,0,2.125,0.505,2.125,1.517
			c0,0.608-0.217,2.054-0.651,4.339c-0.665,3.327-0.996,5.639-0.996,6.942c0,0.431,0.109,0.779,0.323,1.039
			c0.217,0.261,0.499,0.391,0.847,0.391c0.551,0,1.216-0.353,1.997-1.061c0.779-0.711,1.834-1.859,3.167-3.449
			c0.345-0.407,0.735-0.608,1.17-0.608c0.377,0,0.673,0.174,0.89,0.521s0.326,0.822,0.326,1.43c0,1.159-0.277,2.054-0.825,2.689
			c-1.186,1.476-2.445,2.719-3.775,3.731c-1.33,1.012-2.616,1.52-3.859,1.52c-0.955,0-1.832-0.326-2.627-0.977
			s-1.395-1.541-1.799-2.668c-1.503,2.429-3.4,3.644-5.682,3.644C262.019,90.457,260.586,89.806,259.517,88.503z M267.197,84.946
			c0.578-0.752,0.996-1.748,1.256-2.993l1.606-7.981c-1.216,0.03-2.336,0.483-3.362,1.365c-1.028,0.885-1.845,2.049-2.45,3.493
			c-0.608,1.446-0.912,2.98-0.912,4.6c0,0.896,0.179,1.56,0.543,1.995c0.361,0.434,0.86,0.651,1.495,0.651
			C266.008,86.074,266.616,85.7,267.197,84.946z"/>
		<path fill="#FFFFFF" d="M279.623,88.72c-0.448-1.156-0.673-3.007-0.673-5.552c0-3.758,0.535-7.332,1.607-10.716
			c0.261-0.839,0.687-1.452,1.278-1.843c0.594-0.391,1.425-0.586,2.497-0.586c0.578,0,0.982,0.073,1.213,0.217
			c0.231,0.144,0.347,0.421,0.347,0.825c0,0.461-0.217,1.503-0.651,3.123c-0.288,1.156-0.518,2.168-0.692,3.037
			s-0.32,1.938-0.434,3.21c0.952-2.488,2.024-4.513,3.21-6.073c1.186-1.563,2.347-2.676,3.493-3.341
			c1.14-0.665,2.19-0.999,3.145-0.999c1.878,0,2.82,0.942,2.82,2.82c0,1.129-0.32,3.167-0.955,6.117
			c-0.551,2.516-0.825,4.179-0.825,4.99c0,1.156,0.421,1.734,1.259,1.734c0.578,0,1.265-0.353,2.06-1.061
			c0.795-0.711,1.859-1.859,3.189-3.449c0.347-0.407,0.738-0.608,1.172-0.608c0.375,0,0.673,0.174,0.89,0.521
			s0.323,0.822,0.323,1.43c0,1.159-0.274,2.054-0.822,2.689c-1.246,1.533-2.581,2.792-4.014,3.775
			c-1.433,0.985-3.058,1.476-4.879,1.476c-1.476,0-2.589-0.426-3.341-1.281c-0.754-0.852-1.129-2.09-1.129-3.71
			c0-0.809,0.201-2.255,0.608-4.336c0.375-1.824,0.564-3.08,0.564-3.775c0-0.464-0.16-0.695-0.478-0.695
			c-0.377,0-0.904,0.486-1.585,1.455c-0.678,0.969-1.373,2.247-2.081,3.837c-0.708,1.593-1.281,3.27-1.715,5.034
			c-0.318,1.36-0.687,2.277-1.104,2.754c-0.421,0.478-1.077,0.716-1.976,0.716C280.844,90.457,280.07,89.879,279.623,88.72z"/>
		<path fill="#FFFFFF" d="M320.618,81.087c0.217,0.347,0.326,0.822,0.326,1.43c0,1.159-0.277,2.054-0.825,2.689
			c-1.243,1.533-2.602,2.792-4.079,3.775c-1.474,0.985-3.167,1.476-5.075,1.476c-5.9,0-8.849-4.152-8.849-12.45
			c0-1.273,0.043-2.562,0.13-3.862h-1.693c-0.866,0-1.452-0.16-1.756-0.478c-0.304-0.317-0.456-0.825-0.456-1.52
			c0-1.617,0.651-2.429,1.951-2.429h2.475c0.491-3.18,1.243-6.087,2.255-8.72c1.012-2.631,2.233-4.729,3.666-6.29
			c1.43-1.562,2.971-2.342,4.619-2.342c1.216,0,2.171,0.535,2.863,1.605c0.695,1.071,1.042,2.415,1.042,4.034
			c0,4.484-1.881,8.389-5.639,11.714h4.858c0.464,0,0.795,0.103,0.999,0.304c0.201,0.204,0.304,0.578,0.304,1.129
			c0,1.995-1.634,2.993-4.904,2.993h-5.292c-0.057,1.446-0.087,2.573-0.087,3.384c0,3.007,0.355,5.118,1.064,6.334
			c0.708,1.213,1.829,1.821,3.362,1.821c1.243,0,2.342-0.374,3.297-1.126c0.952-0.752,2.081-1.881,3.384-3.384
			c0.347-0.407,0.735-0.608,1.17-0.608C320.105,80.566,320.401,80.739,320.618,81.087z M310.683,58.158
			c-0.535,1.084-1.042,2.589-1.517,4.511c-0.478,1.924-0.877,4.057-1.194,6.399c1.707-1.474,2.985-3.129,3.84-4.966
			c0.852-1.837,1.278-3.507,1.278-5.011c0-1.707-0.318-2.56-0.953-2.56C311.704,56.531,311.218,57.073,310.683,58.158z"/>
		<path fill="#FFFFFF" d="M318.189,88.72c-0.448-1.156-0.673-3.007-0.673-5.552c0-3.758,0.535-7.332,1.607-10.716
			c0.261-0.839,0.687-1.452,1.278-1.843c0.594-0.391,1.425-0.586,2.497-0.586c0.578,0,0.982,0.073,1.213,0.217
			c0.231,0.144,0.347,0.421,0.347,0.825c0,0.461-0.217,1.503-0.651,3.123c-0.288,1.156-0.518,2.163-0.692,3.015
			s-0.32,1.916-0.434,3.189c0.779-2.255,1.712-4.165,2.798-5.726c1.083-1.563,2.198-2.727,3.341-3.493
			c1.142-0.768,2.22-1.151,3.232-1.151s1.726,0.233,2.147,0.695c0.418,0.461,0.63,1.172,0.63,2.125c0,0.925-0.277,2.602-0.825,5.034
			c-0.231,1.039-0.391,1.821-0.478,2.342c1.446-3.558,3.053-6.146,4.817-7.767c1.764-1.617,3.411-2.429,4.944-2.429
			c1.881,0,2.82,0.942,2.82,2.82c0,1.129-0.318,3.167-0.953,6.117c-0.551,2.516-0.825,4.179-0.825,4.99
			c0,1.156,0.418,1.734,1.259,1.734c0.578,0,1.265-0.353,2.06-1.061c0.795-0.711,1.859-1.859,3.189-3.449
			c0.347-0.407,0.738-0.608,1.172-0.608c0.374,0,0.67,0.174,0.887,0.521s0.326,0.822,0.326,1.43c0,1.159-0.274,2.054-0.825,2.689
			c-1.243,1.533-2.581,2.792-4.011,3.775c-1.433,0.985-3.058,1.476-4.882,1.476c-1.474,0-2.589-0.426-3.341-1.281
			c-0.752-0.852-1.126-2.09-1.126-3.71c0-0.809,0.201-2.255,0.605-4.336c0.377-1.824,0.564-3.08,0.564-3.775
			c0-0.464-0.157-0.695-0.478-0.695c-0.374,0-0.909,0.486-1.604,1.455c-0.695,0.969-1.389,2.247-2.081,3.837
			c-0.695,1.593-1.259,3.27-1.693,5.034c-0.318,1.387-0.687,2.315-1.107,2.776c-0.418,0.464-1.091,0.695-2.016,0.695
			c-0.955,0-1.669-0.456-2.147-1.368c-0.478-0.912-0.716-2.016-0.716-3.319c0-1.099,0.144-2.689,0.434-4.771
			c0.231-1.851,0.347-3.066,0.347-3.644c0-0.464-0.16-0.695-0.478-0.695c-0.434,0-0.985,0.521-1.65,1.563
			c-0.665,1.039-1.308,2.372-1.929,3.989c-0.621,1.62-1.121,3.21-1.498,4.773c-0.318,1.36-0.687,2.277-1.104,2.754
			c-0.421,0.478-1.077,0.716-1.976,0.716C319.411,90.457,318.637,89.879,318.189,88.72z"/>
		<path fill="#FFFFFF" d="M369.945,81.087c0.217,0.347,0.326,0.822,0.326,1.43c0,1.159-0.277,2.054-0.825,2.689
			c-1.069,1.303-2.581,2.502-4.532,3.601c-1.954,1.099-4.043,1.65-6.269,1.65c-3.039,0-5.395-0.825-7.072-2.475
			c-1.677-1.647-2.516-3.902-2.516-6.765c0-1.997,0.418-3.853,1.256-5.577c0.839-1.72,2.003-3.085,3.493-4.098
			c1.49-1.012,3.175-1.52,5.053-1.52c1.677,0,3.023,0.499,4.035,1.498c1.012,0.996,1.52,2.35,1.52,4.054
			c0,1.997-0.716,3.71-2.149,5.142c-1.43,1.43-3.853,2.567-7.264,3.406c0.722,1.33,2.095,1.995,4.119,1.995
			c1.303,0,2.784-0.456,4.448-1.368c1.663-0.909,3.102-2.103,4.317-3.577c0.347-0.407,0.735-0.608,1.17-0.608
			C369.432,80.566,369.728,80.739,369.945,81.087z M355.413,76.14c-0.738,1.246-1.107,2.749-1.107,4.513v0.087
			c1.707-0.404,3.05-1.012,4.035-1.824c0.982-0.809,1.474-1.748,1.474-2.82c0-0.548-0.152-0.99-0.456-1.322
			c-0.304-0.334-0.714-0.499-1.235-0.499C357.052,74.275,356.148,74.897,355.413,76.14z"/>
		<path fill="#FFFFFF" d="M367.513,88.72c-0.448-1.156-0.673-3.007-0.673-5.552c0-3.758,0.535-7.332,1.607-10.716
			c0.26-0.839,0.687-1.452,1.278-1.843c0.594-0.391,1.425-0.586,2.497-0.586c0.578,0,0.982,0.073,1.213,0.217
			c0.231,0.144,0.347,0.421,0.347,0.825c0,0.461-0.217,1.503-0.651,3.123c-0.288,1.156-0.518,2.168-0.692,3.037
			s-0.32,1.938-0.434,3.21c0.953-2.488,2.024-4.513,3.21-6.073c1.186-1.563,2.347-2.676,3.492-3.341
			c1.14-0.665,2.19-0.999,3.145-0.999c1.878,0,2.82,0.942,2.82,2.82c0,1.129-0.32,3.167-0.955,6.117
			c-0.551,2.516-0.825,4.179-0.825,4.99c0,1.156,0.421,1.734,1.259,1.734c0.578,0,1.265-0.353,2.06-1.061
			c0.795-0.711,1.859-1.859,3.189-3.449c0.347-0.407,0.738-0.608,1.172-0.608c0.374,0,0.673,0.174,0.89,0.521
			s0.323,0.822,0.323,1.43c0,1.159-0.274,2.054-0.822,2.689c-1.246,1.533-2.581,2.792-4.014,3.775
			c-1.433,0.985-3.058,1.476-4.879,1.476c-1.476,0-2.589-0.426-3.341-1.281c-0.754-0.852-1.129-2.09-1.129-3.71
			c0-0.809,0.201-2.255,0.608-4.336c0.374-1.824,0.564-3.08,0.564-3.775c0-0.464-0.16-0.695-0.478-0.695
			c-0.377,0-0.904,0.486-1.585,1.455c-0.678,0.969-1.373,2.247-2.081,3.837c-0.708,1.593-1.281,3.27-1.715,5.034
			c-0.318,1.36-0.687,2.277-1.104,2.754c-0.421,0.478-1.077,0.716-1.976,0.716C368.734,90.457,367.961,89.879,367.513,88.72z"/>
		<path fill="#FFFFFF" d="M389.508,88.785c-0.825-1.113-1.237-2.651-1.237-4.619c0-2.171,0.147-4.157,0.434-5.965
			c0.29-1.807,0.765-3.726,1.433-5.75c0.288-0.866,0.695-1.487,1.213-1.864c0.521-0.374,1.346-0.564,2.475-0.564
			c0.635,0,1.077,0.103,1.322,0.304c0.247,0.204,0.369,0.507,0.369,0.912c0,0.231-0.16,1.012-0.478,2.342
			c-0.288,1.069-0.521,2.038-0.695,2.906c-0.578,3.037-0.866,5.061-0.866,6.073c0,0.608,0.071,1.034,0.217,1.281
			c0.144,0.244,0.374,0.369,0.692,0.369c0.434,0,0.985-0.442,1.65-1.324c0.665-0.882,1.365-2.212,2.103-3.992
			c0.738-1.777,1.438-3.924,2.106-6.442c0.231-0.866,0.583-1.487,1.061-1.864c0.478-0.374,1.194-0.564,2.149-0.564
			c0.635,0,1.091,0.168,1.365,0.499c0.274,0.334,0.412,0.83,0.412,1.495c0,0.725-0.057,1.528-0.174,2.41
			c-0.117,0.882-0.247,1.786-0.391,2.711c-0.288,1.851-0.521,3.536-0.695,5.053c-0.174,1.52-0.258,3.248-0.258,5.186
			c0,1.099-0.225,1.886-0.673,2.364c-0.45,0.478-1.18,0.716-2.193,0.716c-1.069,0-1.815-0.282-2.233-0.847
			c-0.421-0.564-0.63-1.655-0.63-3.275c0-0.318,0.03-1.026,0.087-2.125c-0.491,2.024-1.221,3.571-2.19,4.64
			c-0.969,1.072-2.003,1.606-3.102,1.606C391.423,90.457,390.333,89.901,389.508,88.785z"/>
		<path fill="#FFFFFF" d="M408.335,89.415c-0.649-0.695-0.974-1.604-0.974-2.733c0-1.303,0.369-2.342,1.104-3.123
			c0.738-0.782,1.772-1.172,3.102-1.172c1.273,0,2.236,0.312,2.885,0.934c0.651,0.621,0.977,1.539,0.977,2.754
			c0,1.33-0.377,2.393-1.129,3.189c-0.752,0.795-1.777,1.194-3.08,1.194C409.947,90.457,408.986,90.11,408.335,89.415z"/>
		<path fill="#FFFFFF" d="M420.178,88.047c-1.577-1.604-2.364-3.723-2.364-6.355c0-2.342,0.461-4.393,1.387-6.16
			c0.925-1.764,2.125-3.123,3.601-4.076c1.476-0.955,3.023-1.433,4.643-1.433c1.59,0,2.825,0.469,3.707,1.411
			c0.882,0.939,1.324,2.147,1.324,3.623c0,1.213-0.269,2.242-0.803,3.08c-0.535,0.839-1.235,1.256-2.103,1.256
			c-0.551,0-0.99-0.13-1.324-0.391c-0.331-0.261-0.499-0.621-0.499-1.083c0-0.204,0.03-0.434,0.087-0.695
			c0.06-0.261,0.103-0.448,0.13-0.564c0.147-0.434,0.217-0.839,0.217-1.216c0-0.374-0.092-0.665-0.282-0.866
			c-0.187-0.204-0.453-0.304-0.801-0.304c-0.668,0-1.289,0.296-1.867,0.887c-0.578,0.594-1.039,1.398-1.387,2.41
			c-0.347,1.012-0.521,2.125-0.521,3.341c0,3.354,1.46,5.031,4.38,5.031c1.186,0,2.467-0.396,3.84-1.194
			c1.373-0.795,2.727-1.986,4.057-3.577c0.347-0.407,0.738-0.608,1.172-0.608c0.374,0,0.67,0.174,0.887,0.521
			c0.217,0.347,0.326,0.822,0.326,1.43c0,1.099-0.274,1.997-0.825,2.689c-1.36,1.68-2.985,2.971-4.879,3.883
			c-1.894,0.912-3.723,1.368-5.487,1.368C423.958,90.457,421.754,89.654,420.178,88.047z"/>
		<path fill="#FFFFFF" d="M457.464,77.486c0.204,0.374,0.304,0.852,0.304,1.43c0,1.389-0.421,2.214-1.259,2.475
			c-1.734,0.605-3.642,0.952-5.726,1.039c-0.548,2.429-1.634,4.374-3.254,5.834c-1.62,1.463-3.454,2.193-5.509,2.193
			c-1.734,0-3.218-0.421-4.448-1.259c-1.229-0.839-2.16-1.951-2.798-3.341c-0.635-1.387-0.952-2.89-0.952-4.51
			c0-2.198,0.418-4.157,1.256-5.881c0.839-1.72,1.997-3.064,3.471-4.033c1.476-0.969,3.11-1.455,4.904-1.455
			c2.195,0,3.967,0.76,5.313,2.277c1.343,1.52,2.133,3.392,2.364,5.62c1.36-0.087,2.98-0.377,4.86-0.868
			c0.231-0.057,0.431-0.087,0.605-0.087C456.972,76.921,457.26,77.108,457.464,77.486z M444.774,84.729
			c0.678-0.752,1.134-1.834,1.368-3.254c-0.898-0.605-1.585-1.4-2.062-2.385c-0.478-0.982-0.714-2.024-0.714-3.123
			c0-0.461,0.043-0.925,0.13-1.387h-0.217c-1.159,0-2.119,0.556-2.887,1.669c-0.765,1.115-1.148,2.684-1.148,4.708
			c0,1.59,0.309,2.806,0.934,3.644c0.621,0.839,1.351,1.256,2.19,1.256C443.293,85.857,444.096,85.483,444.774,84.729z"/>
		<path fill="#FFFFFF" d="M454.796,88.72c-0.448-1.156-0.673-3.007-0.673-5.552c0-3.758,0.535-7.332,1.606-10.716
			c0.261-0.839,0.687-1.452,1.278-1.843c0.594-0.391,1.425-0.586,2.497-0.586c0.578,0,0.982,0.073,1.213,0.217
			c0.231,0.144,0.347,0.421,0.347,0.825c0,0.461-0.217,1.503-0.651,3.123c-0.288,1.156-0.518,2.163-0.692,3.015
			s-0.32,1.916-0.434,3.189c0.779-2.255,1.712-4.165,2.798-5.726c1.083-1.563,2.198-2.727,3.341-3.493
			c1.142-0.768,2.22-1.151,3.232-1.151s1.726,0.233,2.147,0.695c0.418,0.461,0.63,1.172,0.63,2.125c0,0.925-0.277,2.602-0.825,5.034
			c-0.231,1.039-0.391,1.821-0.478,2.342c0.955-2.429,2.019-4.41,3.189-5.943c1.172-1.533,2.323-2.624,3.449-3.275
			c1.129-0.651,2.171-0.977,3.123-0.977c0.925,0,1.628,0.239,2.106,0.716c0.475,0.478,0.714,1.178,0.714,2.103
			c0,0.752-0.157,2.171-0.475,4.252c-0.29,1.764-0.521,3.436-0.695,5.009c-0.174,1.577-0.26,3.335-0.26,5.273
			c0,1.099-0.225,1.886-0.673,2.364s-1.178,0.716-2.19,0.716c-0.955,0-1.65-0.247-2.084-0.738c-0.434-0.491-0.649-1.229-0.649-2.212
			c0-1.159,0.201-3.066,0.605-5.729c0.347-2.312,0.521-3.788,0.521-4.423c0-0.464-0.157-0.695-0.478-0.695
			c-0.374,0-0.909,0.486-1.604,1.455c-0.695,0.969-1.389,2.247-2.081,3.837c-0.695,1.593-1.259,3.27-1.693,5.034
			c-0.318,1.387-0.687,2.315-1.107,2.776c-0.418,0.464-1.091,0.695-2.016,0.695c-0.955,0-1.669-0.456-2.147-1.368
			c-0.478-0.912-0.716-2.016-0.716-3.319c0-1.099,0.144-2.689,0.434-4.771c0.231-1.851,0.347-3.066,0.347-3.644
			c0-0.464-0.16-0.695-0.478-0.695c-0.434,0-0.985,0.521-1.65,1.563c-0.665,1.039-1.308,2.372-1.929,3.989
			c-0.621,1.62-1.121,3.21-1.498,4.773c-0.318,1.36-0.687,2.277-1.104,2.754c-0.421,0.478-1.077,0.716-1.976,0.716
			C456.017,90.457,455.244,89.879,454.796,88.72z"/>
	</g>
</g>
</svg>
